<mxfile host="app.diagrams.net" modified="2024-04-23T02:19:36.611Z" agent="Mozilla/5.0 (Windows NT 10.0; Win64; x64; rv:125.0) Gecko/20100101 Firefox/125.0" etag="RLVtPYlU-ZRxp0LG3fvU" version="24.2.7" type="github">
  <diagram name="Página-1" id="LQiViD_UL0SoKPctcli0">
    <mxGraphModel dx="3225" dy="226" grid="1" gridSize="10" guides="1" tooltips="1" connect="1" arrows="1" fold="1" page="1" pageScale="1" pageWidth="827" pageHeight="1169" math="0" shadow="0">
      <root>
        <mxCell id="0" />
        <mxCell id="1" parent="0" />
        <mxCell id="gAY-Rqm5ZLzMug__gM5--11" style="edgeStyle=none;rounded=0;orthogonalLoop=1;jettySize=auto;html=1;entryX=0.5;entryY=0;entryDx=0;entryDy=0;" parent="1" edge="1">
          <mxGeometry relative="1" as="geometry">
            <mxPoint x="450" y="2026.75" as="sourcePoint" />
            <mxPoint x="450" y="2026.75" as="targetPoint" />
          </mxGeometry>
        </mxCell>
        <mxCell id="4g3veOq3ECDi8k-GJWJ5-151" style="edgeStyle=none;rounded=0;orthogonalLoop=1;jettySize=auto;html=1;entryX=0.5;entryY=0;entryDx=0;entryDy=0;" edge="1" parent="1">
          <mxGeometry relative="1" as="geometry">
            <mxPoint x="550" y="2856.75" as="sourcePoint" />
            <mxPoint x="550" y="2856.75" as="targetPoint" />
          </mxGeometry>
        </mxCell>
        <mxCell id="4g3veOq3ECDi8k-GJWJ5-239" style="edgeStyle=orthogonalEdgeStyle;rounded=0;orthogonalLoop=1;jettySize=auto;html=1;exitX=0.75;exitY=0;exitDx=0;exitDy=0;endArrow=none;endFill=0;" edge="1" parent="1" source="4g3veOq3ECDi8k-GJWJ5-242">
          <mxGeometry relative="1" as="geometry">
            <mxPoint x="1454" y="2330" as="targetPoint" />
            <Array as="points">
              <mxPoint x="1394" y="2330" />
            </Array>
          </mxGeometry>
        </mxCell>
        <mxCell id="4g3veOq3ECDi8k-GJWJ5-240" style="edgeStyle=orthogonalEdgeStyle;rounded=0;orthogonalLoop=1;jettySize=auto;html=1;exitX=0;exitY=0.25;exitDx=0;exitDy=0;entryX=1;entryY=0.5;entryDx=0;entryDy=0;endArrow=none;endFill=0;" edge="1" parent="1" source="4g3veOq3ECDi8k-GJWJ5-242" target="4g3veOq3ECDi8k-GJWJ5-311">
          <mxGeometry relative="1" as="geometry" />
        </mxCell>
        <mxCell id="4g3veOq3ECDi8k-GJWJ5-241" style="edgeStyle=orthogonalEdgeStyle;rounded=0;orthogonalLoop=1;jettySize=auto;html=1;exitX=1;exitY=0.25;exitDx=0;exitDy=0;endArrow=none;endFill=0;" edge="1" parent="1">
          <mxGeometry relative="1" as="geometry">
            <mxPoint x="1524" y="2473.217391304348" as="targetPoint" />
            <mxPoint x="1434" y="2473" as="sourcePoint" />
          </mxGeometry>
        </mxCell>
        <mxCell id="4g3veOq3ECDi8k-GJWJ5-242" value="Pieza Cinematográfica" style="swimlane;childLayout=stackLayout;horizontal=1;startSize=50;horizontalStack=0;rounded=1;fontSize=14;fontStyle=0;strokeWidth=2;resizeParent=0;resizeLast=1;shadow=0;dashed=0;align=center;arcSize=4;whiteSpace=wrap;html=1;" vertex="1" parent="1">
          <mxGeometry x="1274" y="2460" width="160" height="150" as="geometry" />
        </mxCell>
        <mxCell id="4g3veOq3ECDi8k-GJWJ5-243" value="&lt;div&gt;#CodigoPieza&lt;/div&gt;&lt;div&gt;Título&lt;/div&gt;&lt;div&gt;FechaInicio&lt;/div&gt;&lt;div&gt;FechaFin&lt;br&gt;&lt;/div&gt;" style="align=left;strokeColor=none;fillColor=none;spacingLeft=4;fontSize=12;verticalAlign=top;resizable=0;rotatable=0;part=1;html=1;" vertex="1" parent="4g3veOq3ECDi8k-GJWJ5-242">
          <mxGeometry y="50" width="160" height="100" as="geometry" />
        </mxCell>
        <mxCell id="4g3veOq3ECDi8k-GJWJ5-244" value="EstadoPieza" style="swimlane;childLayout=stackLayout;horizontal=1;startSize=50;horizontalStack=0;rounded=1;fontSize=14;fontStyle=0;strokeWidth=2;resizeParent=0;resizeLast=1;shadow=0;dashed=0;align=center;arcSize=4;whiteSpace=wrap;html=1;" vertex="1" parent="1">
          <mxGeometry x="1435" y="2140" width="160" height="120" as="geometry" />
        </mxCell>
        <mxCell id="4g3veOq3ECDi8k-GJWJ5-245" value="&lt;div&gt;#CodigoEstado&lt;/div&gt;&lt;div&gt;+Descripción&lt;/div&gt;" style="align=left;strokeColor=none;fillColor=none;spacingLeft=4;fontSize=12;verticalAlign=top;resizable=0;rotatable=0;part=1;html=1;" vertex="1" parent="4g3veOq3ECDi8k-GJWJ5-244">
          <mxGeometry y="50" width="160" height="70" as="geometry" />
        </mxCell>
        <mxCell id="4g3veOq3ECDi8k-GJWJ5-246" value="Ciudad" style="swimlane;childLayout=stackLayout;horizontal=1;startSize=50;horizontalStack=0;rounded=1;fontSize=14;fontStyle=0;strokeWidth=2;resizeParent=0;resizeLast=1;shadow=0;dashed=0;align=center;arcSize=4;whiteSpace=wrap;html=1;" vertex="1" parent="1">
          <mxGeometry x="1130" y="3090" width="160" height="120" as="geometry" />
        </mxCell>
        <mxCell id="4g3veOq3ECDi8k-GJWJ5-247" value="&lt;div&gt;#CodigoCiudad&lt;/div&gt;&lt;div&gt;+NombreCiudad&lt;br&gt;&lt;/div&gt;" style="align=left;strokeColor=none;fillColor=none;spacingLeft=4;fontSize=12;verticalAlign=top;resizable=0;rotatable=0;part=1;html=1;" vertex="1" parent="4g3veOq3ECDi8k-GJWJ5-246">
          <mxGeometry y="50" width="160" height="70" as="geometry" />
        </mxCell>
        <mxCell id="4g3veOq3ECDi8k-GJWJ5-248" value="País" style="swimlane;childLayout=stackLayout;horizontal=1;startSize=50;horizontalStack=0;rounded=1;fontSize=14;fontStyle=0;strokeWidth=2;resizeParent=0;resizeLast=1;shadow=0;dashed=0;align=center;arcSize=4;whiteSpace=wrap;html=1;" vertex="1" parent="1">
          <mxGeometry x="1530" y="3113" width="160" height="120" as="geometry" />
        </mxCell>
        <mxCell id="4g3veOq3ECDi8k-GJWJ5-249" value="&lt;div&gt;#CodigoPaís&lt;/div&gt;&lt;div&gt;+NombrePaís&lt;br&gt;&lt;/div&gt;" style="align=left;strokeColor=none;fillColor=none;spacingLeft=4;fontSize=12;verticalAlign=top;resizable=0;rotatable=0;part=1;html=1;" vertex="1" parent="4g3veOq3ECDi8k-GJWJ5-248">
          <mxGeometry y="50" width="160" height="70" as="geometry" />
        </mxCell>
        <mxCell id="4g3veOq3ECDi8k-GJWJ5-250" value="BandaAsociada" style="swimlane;childLayout=stackLayout;horizontal=1;startSize=50;horizontalStack=0;rounded=1;fontSize=14;fontStyle=0;strokeWidth=2;resizeParent=0;resizeLast=1;shadow=0;dashed=0;align=center;arcSize=4;whiteSpace=wrap;html=1;" vertex="1" parent="1">
          <mxGeometry x="989" y="2185" width="160" height="120" as="geometry" />
        </mxCell>
        <mxCell id="4g3veOq3ECDi8k-GJWJ5-251" value="&lt;div&gt;#CodigoBanda&lt;/div&gt;&lt;div&gt;+NombreComercial&lt;/div&gt;&lt;div&gt;+TipoMusica&lt;br&gt;&lt;/div&gt;" style="align=left;strokeColor=none;fillColor=none;spacingLeft=4;fontSize=12;verticalAlign=top;resizable=0;rotatable=0;part=1;html=1;" vertex="1" parent="4g3veOq3ECDi8k-GJWJ5-250">
          <mxGeometry y="50" width="160" height="70" as="geometry" />
        </mxCell>
        <mxCell id="4g3veOq3ECDi8k-GJWJ5-252" value="Persona" style="swimlane;childLayout=stackLayout;horizontal=1;startSize=50;horizontalStack=0;rounded=1;fontSize=14;fontStyle=0;strokeWidth=2;resizeParent=0;resizeLast=1;shadow=0;dashed=0;align=center;arcSize=4;whiteSpace=wrap;html=1;" vertex="1" parent="1">
          <mxGeometry x="1731" y="2530" width="160" height="160" as="geometry" />
        </mxCell>
        <mxCell id="4g3veOq3ECDi8k-GJWJ5-253" value="&lt;div&gt;#CodigoPersona&lt;/div&gt;&lt;div&gt;+Nombre&lt;/div&gt;&lt;div&gt;+Apellitos&lt;/div&gt;&lt;div&gt;+nacionalidad&lt;/div&gt;&lt;div&gt;+teléfono&lt;/div&gt;&lt;div&gt;+correoElectrónico&lt;br&gt;&lt;/div&gt;" style="align=left;strokeColor=none;fillColor=none;spacingLeft=4;fontSize=12;verticalAlign=top;resizable=0;rotatable=0;part=1;html=1;" vertex="1" parent="4g3veOq3ECDi8k-GJWJ5-252">
          <mxGeometry y="50" width="160" height="110" as="geometry" />
        </mxCell>
        <mxCell id="4g3veOq3ECDi8k-GJWJ5-254" style="edgeStyle=none;rounded=0;orthogonalLoop=1;jettySize=auto;html=1;entryX=0.5;entryY=0;entryDx=0;entryDy=0;" edge="1" parent="4g3veOq3ECDi8k-GJWJ5-252" source="4g3veOq3ECDi8k-GJWJ5-253" target="4g3veOq3ECDi8k-GJWJ5-253">
          <mxGeometry relative="1" as="geometry" />
        </mxCell>
        <mxCell id="4g3veOq3ECDi8k-GJWJ5-255" value="Extra" style="swimlane;childLayout=stackLayout;horizontal=1;startSize=50;horizontalStack=0;rounded=1;fontSize=14;fontStyle=0;strokeWidth=2;resizeParent=0;resizeLast=1;shadow=0;dashed=0;align=center;arcSize=4;whiteSpace=wrap;html=1;" vertex="1" parent="1">
          <mxGeometry x="1771" y="2810" width="160" height="90" as="geometry" />
        </mxCell>
        <mxCell id="4g3veOq3ECDi8k-GJWJ5-256" value="&lt;div&gt;+NombreEscuelaTeatro&lt;/div&gt;" style="align=left;strokeColor=none;fillColor=none;spacingLeft=4;fontSize=12;verticalAlign=top;resizable=0;rotatable=0;part=1;html=1;" vertex="1" parent="4g3veOq3ECDi8k-GJWJ5-255">
          <mxGeometry y="50" width="160" height="40" as="geometry" />
        </mxCell>
        <mxCell id="4g3veOq3ECDi8k-GJWJ5-257" value="Especialidad" style="swimlane;childLayout=stackLayout;horizontal=1;startSize=50;horizontalStack=0;rounded=1;fontSize=14;fontStyle=0;strokeWidth=2;resizeParent=0;resizeLast=1;shadow=0;dashed=0;align=center;arcSize=4;whiteSpace=wrap;html=1;" vertex="1" parent="1">
          <mxGeometry x="1771" y="3160" width="160" height="120" as="geometry" />
        </mxCell>
        <mxCell id="4g3veOq3ECDi8k-GJWJ5-258" value="&lt;div&gt;#CodigoEspecialidad&lt;/div&gt;&lt;div&gt;+Descripción&lt;br&gt;&lt;/div&gt;" style="align=left;strokeColor=none;fillColor=none;spacingLeft=4;fontSize=12;verticalAlign=top;resizable=0;rotatable=0;part=1;html=1;" vertex="1" parent="4g3veOq3ECDi8k-GJWJ5-257">
          <mxGeometry y="50" width="160" height="70" as="geometry" />
        </mxCell>
        <mxCell id="4g3veOq3ECDi8k-GJWJ5-259" value="TemaUtilizado" style="swimlane;childLayout=stackLayout;horizontal=1;startSize=50;horizontalStack=0;rounded=1;fontSize=14;fontStyle=0;strokeWidth=2;resizeParent=0;resizeLast=1;shadow=0;dashed=0;align=center;arcSize=4;whiteSpace=wrap;html=1;" vertex="1" parent="1">
          <mxGeometry x="621" y="2185" width="160" height="120" as="geometry" />
        </mxCell>
        <mxCell id="4g3veOq3ECDi8k-GJWJ5-260" value="&lt;div&gt;#CodigoTema&lt;/div&gt;&lt;div&gt;+Nombre&lt;br&gt;&lt;/div&gt;" style="align=left;strokeColor=none;fillColor=none;spacingLeft=4;fontSize=12;verticalAlign=top;resizable=0;rotatable=0;part=1;html=1;" vertex="1" parent="4g3veOq3ECDi8k-GJWJ5-259">
          <mxGeometry y="50" width="160" height="70" as="geometry" />
        </mxCell>
        <mxCell id="4g3veOq3ECDi8k-GJWJ5-261" value="Fuente de Financiamiento" style="swimlane;childLayout=stackLayout;horizontal=1;startSize=50;horizontalStack=0;rounded=1;fontSize=14;fontStyle=0;strokeWidth=2;resizeParent=0;resizeLast=1;shadow=0;dashed=0;align=center;arcSize=4;whiteSpace=wrap;html=1;" vertex="1" parent="1">
          <mxGeometry x="1731" y="2388" width="160" height="120" as="geometry" />
        </mxCell>
        <mxCell id="4g3veOq3ECDi8k-GJWJ5-262" value="&lt;div&gt;#CodigoFuente&lt;/div&gt;&lt;div&gt;+Descripción&lt;br&gt;&lt;/div&gt;" style="align=left;strokeColor=none;fillColor=none;spacingLeft=4;fontSize=12;verticalAlign=top;resizable=0;rotatable=0;part=1;html=1;" vertex="1" parent="4g3veOq3ECDi8k-GJWJ5-261">
          <mxGeometry y="50" width="160" height="70" as="geometry" />
        </mxCell>
        <mxCell id="4g3veOq3ECDi8k-GJWJ5-263" value="PlataformaDistribución" style="swimlane;childLayout=stackLayout;horizontal=1;startSize=50;horizontalStack=0;rounded=1;fontSize=14;fontStyle=0;strokeWidth=2;resizeParent=0;resizeLast=1;shadow=0;dashed=0;align=center;arcSize=4;whiteSpace=wrap;html=1;" vertex="1" parent="1">
          <mxGeometry x="976" y="2810" width="160" height="100" as="geometry" />
        </mxCell>
        <mxCell id="4g3veOq3ECDi8k-GJWJ5-264" value="&lt;div&gt;#CódigoPlataformaD&lt;/div&gt;&lt;div&gt;+Nombre&lt;/div&gt;" style="align=left;strokeColor=none;fillColor=none;spacingLeft=4;fontSize=12;verticalAlign=top;resizable=0;rotatable=0;part=1;html=1;" vertex="1" parent="4g3veOq3ECDi8k-GJWJ5-263">
          <mxGeometry y="50" width="160" height="50" as="geometry" />
        </mxCell>
        <mxCell id="4g3veOq3ECDi8k-GJWJ5-265" value="Dirige" style="shape=rhombus;perimeter=rhombusPerimeter;whiteSpace=wrap;html=1;align=center;" vertex="1" parent="1">
          <mxGeometry x="1514" y="2507" width="120" height="60" as="geometry" />
        </mxCell>
        <mxCell id="4g3veOq3ECDi8k-GJWJ5-266" value="" style="endArrow=none;html=1;rounded=0;exitX=1;exitY=0.5;exitDx=0;exitDy=0;entryX=0;entryY=0.25;entryDx=0;entryDy=0;" edge="1" parent="1" source="4g3veOq3ECDi8k-GJWJ5-265">
          <mxGeometry relative="1" as="geometry">
            <mxPoint x="1541" y="2682" as="sourcePoint" />
            <mxPoint x="1731" y="2537" as="targetPoint" />
            <Array as="points">
              <mxPoint x="1674" y="2537" />
              <mxPoint x="1724" y="2537" />
            </Array>
          </mxGeometry>
        </mxCell>
        <mxCell id="4g3veOq3ECDi8k-GJWJ5-267" value="" style="endArrow=none;html=1;rounded=0;exitX=0.138;exitY=0.983;exitDx=0;exitDy=0;entryX=0;entryY=0.5;entryDx=0;entryDy=0;exitPerimeter=0;" edge="1" parent="1" source="4g3veOq3ECDi8k-GJWJ5-269" target="4g3veOq3ECDi8k-GJWJ5-265">
          <mxGeometry relative="1" as="geometry">
            <mxPoint x="1428" y="2537" as="sourcePoint" />
            <mxPoint x="1508" y="2557" as="targetPoint" />
            <Array as="points">
              <mxPoint x="1518" y="2537" />
            </Array>
          </mxGeometry>
        </mxCell>
        <mxCell id="4g3veOq3ECDi8k-GJWJ5-268" value="1,n" style="text;html=1;align=center;verticalAlign=middle;resizable=0;points=[];autosize=1;strokeColor=none;fillColor=none;" vertex="1" parent="1">
          <mxGeometry x="1691" y="2507" width="40" height="30" as="geometry" />
        </mxCell>
        <mxCell id="4g3veOq3ECDi8k-GJWJ5-269" value="0,n" style="text;html=1;align=center;verticalAlign=middle;resizable=0;points=[];autosize=1;strokeColor=none;fillColor=none;" vertex="1" parent="1">
          <mxGeometry x="1428" y="2507" width="40" height="30" as="geometry" />
        </mxCell>
        <mxCell id="4g3veOq3ECDi8k-GJWJ5-270" style="edgeStyle=none;rounded=0;orthogonalLoop=1;jettySize=auto;html=1;entryX=0.5;entryY=0;entryDx=0;entryDy=0;" edge="1" parent="1">
          <mxGeometry relative="1" as="geometry">
            <mxPoint x="410" y="3546.75" as="sourcePoint" />
            <mxPoint x="410" y="3546.75" as="targetPoint" />
          </mxGeometry>
        </mxCell>
        <mxCell id="4g3veOq3ECDi8k-GJWJ5-271" style="edgeStyle=orthogonalEdgeStyle;rounded=0;orthogonalLoop=1;jettySize=auto;html=1;entryX=0;entryY=0.5;entryDx=0;entryDy=0;endArrow=none;endFill=0;" edge="1" parent="1" source="4g3veOq3ECDi8k-GJWJ5-273" target="4g3veOq3ECDi8k-GJWJ5-275">
          <mxGeometry relative="1" as="geometry" />
        </mxCell>
        <mxCell id="4g3veOq3ECDi8k-GJWJ5-272" style="edgeStyle=orthogonalEdgeStyle;rounded=0;orthogonalLoop=1;jettySize=auto;html=1;entryX=0.5;entryY=1;entryDx=0;entryDy=0;endArrow=none;endFill=0;" edge="1" parent="1" source="4g3veOq3ECDi8k-GJWJ5-273" target="4g3veOq3ECDi8k-GJWJ5-245">
          <mxGeometry relative="1" as="geometry" />
        </mxCell>
        <mxCell id="4g3veOq3ECDi8k-GJWJ5-273" value="SeEncuentraEn" style="shape=rhombus;perimeter=rhombusPerimeter;whiteSpace=wrap;html=1;align=center;" vertex="1" parent="1">
          <mxGeometry x="1455" y="2305" width="120" height="60" as="geometry" />
        </mxCell>
        <mxCell id="4g3veOq3ECDi8k-GJWJ5-274" value="0,n" style="text;html=1;align=center;verticalAlign=middle;resizable=0;points=[];autosize=1;strokeColor=none;fillColor=none;" vertex="1" parent="1">
          <mxGeometry x="1388" y="2434" width="40" height="30" as="geometry" />
        </mxCell>
        <mxCell id="4g3veOq3ECDi8k-GJWJ5-275" value="+FechaInicio&lt;div&gt;+FechaFin&lt;/div&gt;" style="ellipse;whiteSpace=wrap;html=1;align=center;" vertex="1" parent="1">
          <mxGeometry x="1614" y="2315" width="100" height="40" as="geometry" />
        </mxCell>
        <mxCell id="4g3veOq3ECDi8k-GJWJ5-276" style="edgeStyle=orthogonalEdgeStyle;rounded=0;orthogonalLoop=1;jettySize=auto;html=1;entryX=0.5;entryY=0;entryDx=0;entryDy=0;endArrow=none;endFill=0;" edge="1" parent="1" source="4g3veOq3ECDi8k-GJWJ5-278" target="4g3veOq3ECDi8k-GJWJ5-305">
          <mxGeometry relative="1" as="geometry" />
        </mxCell>
        <mxCell id="4g3veOq3ECDi8k-GJWJ5-277" style="edgeStyle=orthogonalEdgeStyle;rounded=0;orthogonalLoop=1;jettySize=auto;html=1;exitX=0;exitY=0.5;exitDx=0;exitDy=0;entryX=1;entryY=0.5;entryDx=0;entryDy=0;endArrow=none;endFill=0;" edge="1" parent="1" source="4g3veOq3ECDi8k-GJWJ5-278" target="4g3veOq3ECDi8k-GJWJ5-279">
          <mxGeometry relative="1" as="geometry" />
        </mxCell>
        <mxCell id="4g3veOq3ECDi8k-GJWJ5-278" value="SeRodaEn" style="shape=rhombus;perimeter=rhombusPerimeter;whiteSpace=wrap;html=1;align=center;" vertex="1" parent="1">
          <mxGeometry x="1270" y="2663" width="120" height="60" as="geometry" />
        </mxCell>
        <mxCell id="4g3veOq3ECDi8k-GJWJ5-279" value="+FechaInicio&lt;div&gt;+FechaFin&lt;/div&gt;" style="ellipse;whiteSpace=wrap;html=1;align=center;" vertex="1" parent="1">
          <mxGeometry x="1134" y="2673" width="100" height="40" as="geometry" />
        </mxCell>
        <mxCell id="4g3veOq3ECDi8k-GJWJ5-280" value="0,n" style="text;html=1;align=center;verticalAlign=middle;resizable=0;points=[];autosize=1;strokeColor=none;fillColor=none;" vertex="1" parent="1">
          <mxGeometry x="1299" y="2604" width="40" height="30" as="geometry" />
        </mxCell>
        <mxCell id="4g3veOq3ECDi8k-GJWJ5-281" value="0,n" style="text;html=1;align=center;verticalAlign=middle;resizable=0;points=[];autosize=1;strokeColor=none;fillColor=none;" vertex="1" parent="1">
          <mxGeometry x="1296" y="2755" width="40" height="30" as="geometry" />
        </mxCell>
        <mxCell id="4g3veOq3ECDi8k-GJWJ5-282" value="EstáUbicada" style="shape=rhombus;perimeter=rhombusPerimeter;whiteSpace=wrap;html=1;align=center;" vertex="1" parent="1">
          <mxGeometry x="1315" y="3260" width="120" height="60" as="geometry" />
        </mxCell>
        <mxCell id="4g3veOq3ECDi8k-GJWJ5-283" value="" style="endArrow=none;html=1;rounded=0;exitX=1;exitY=0.5;exitDx=0;exitDy=0;entryX=0;entryY=0;entryDx=0;entryDy=0;" edge="1" parent="1" source="4g3veOq3ECDi8k-GJWJ5-282" target="4g3veOq3ECDi8k-GJWJ5-249">
          <mxGeometry relative="1" as="geometry">
            <mxPoint x="1384" y="3308" as="sourcePoint" />
            <mxPoint x="1517" y="3273" as="targetPoint" />
            <Array as="points">
              <mxPoint x="1480" y="3290" />
              <mxPoint x="1480" y="3163" />
            </Array>
          </mxGeometry>
        </mxCell>
        <mxCell id="4g3veOq3ECDi8k-GJWJ5-284" value="" style="endArrow=none;html=1;rounded=0;entryX=0;entryY=0.5;entryDx=0;entryDy=0;exitX=0.5;exitY=1;exitDx=0;exitDy=0;" edge="1" parent="1" source="4g3veOq3ECDi8k-GJWJ5-247" target="4g3veOq3ECDi8k-GJWJ5-282">
          <mxGeometry relative="1" as="geometry">
            <mxPoint x="1400" y="3300" as="sourcePoint" />
            <mxPoint x="1227" y="3290" as="targetPoint" />
            <Array as="points">
              <mxPoint x="1210" y="3290" />
            </Array>
          </mxGeometry>
        </mxCell>
        <mxCell id="4g3veOq3ECDi8k-GJWJ5-285" value="1,1" style="text;html=1;align=center;verticalAlign=middle;resizable=0;points=[];autosize=1;strokeColor=none;fillColor=none;" vertex="1" parent="1">
          <mxGeometry x="1487" y="3139" width="40" height="30" as="geometry" />
        </mxCell>
        <mxCell id="4g3veOq3ECDi8k-GJWJ5-286" value="0,n" style="text;html=1;align=center;verticalAlign=middle;resizable=0;points=[];autosize=1;strokeColor=none;fillColor=none;" vertex="1" parent="1">
          <mxGeometry x="1203" y="3207" width="40" height="30" as="geometry" />
        </mxCell>
        <mxCell id="4g3veOq3ECDi8k-GJWJ5-287" style="edgeStyle=none;rounded=0;orthogonalLoop=1;jettySize=auto;html=1;entryX=0.5;entryY=0;entryDx=0;entryDy=0;" edge="1" parent="1">
          <mxGeometry relative="1" as="geometry">
            <mxPoint x="1220" y="3260" as="sourcePoint" />
            <mxPoint x="1220" y="3260" as="targetPoint" />
          </mxGeometry>
        </mxCell>
        <mxCell id="4g3veOq3ECDi8k-GJWJ5-288" style="edgeStyle=none;rounded=0;orthogonalLoop=1;jettySize=auto;html=1;entryX=0.5;entryY=0;entryDx=0;entryDy=0;" edge="1" parent="1">
          <mxGeometry relative="1" as="geometry">
            <mxPoint x="990.5" y="3230" as="sourcePoint" />
            <mxPoint x="990.5" y="3230" as="targetPoint" />
          </mxGeometry>
        </mxCell>
        <mxCell id="4g3veOq3ECDi8k-GJWJ5-289" style="edgeStyle=orthogonalEdgeStyle;rounded=0;orthogonalLoop=1;jettySize=auto;html=1;exitX=0.5;exitY=1;exitDx=0;exitDy=0;entryX=0.5;entryY=0;entryDx=0;entryDy=0;endArrow=none;endFill=0;" edge="1" parent="1" source="4g3veOq3ECDi8k-GJWJ5-290" target="4g3veOq3ECDi8k-GJWJ5-257">
          <mxGeometry relative="1" as="geometry" />
        </mxCell>
        <mxCell id="4g3veOq3ECDi8k-GJWJ5-290" value="Posee" style="shape=rhombus;perimeter=rhombusPerimeter;whiteSpace=wrap;html=1;align=center;" vertex="1" parent="1">
          <mxGeometry x="1791" y="2995" width="120" height="60" as="geometry" />
        </mxCell>
        <mxCell id="4g3veOq3ECDi8k-GJWJ5-291" value="0,n" style="text;html=1;align=center;verticalAlign=middle;resizable=0;points=[];autosize=1;strokeColor=none;fillColor=none;" vertex="1" parent="1">
          <mxGeometry x="1810" y="3130" width="40" height="30" as="geometry" />
        </mxCell>
        <mxCell id="4g3veOq3ECDi8k-GJWJ5-292" value="0,n" style="text;html=1;align=center;verticalAlign=middle;resizable=0;points=[];autosize=1;strokeColor=none;fillColor=none;" vertex="1" parent="1">
          <mxGeometry x="1810" y="2900" width="40" height="30" as="geometry" />
        </mxCell>
        <mxCell id="4g3veOq3ECDi8k-GJWJ5-293" value="" style="endArrow=none;html=1;rounded=0;entryX=0.25;entryY=0;entryDx=0;entryDy=0;exitX=1;exitY=0.5;exitDx=0;exitDy=0;" edge="1" parent="1" source="4g3veOq3ECDi8k-GJWJ5-294" target="4g3veOq3ECDi8k-GJWJ5-242">
          <mxGeometry relative="1" as="geometry">
            <mxPoint x="1314" y="2160" as="sourcePoint" />
            <mxPoint x="1334" y="2230" as="targetPoint" />
            <Array as="points">
              <mxPoint x="1314" y="2245" />
            </Array>
          </mxGeometry>
        </mxCell>
        <mxCell id="4g3veOq3ECDi8k-GJWJ5-294" value="Tiene" style="shape=rhombus;perimeter=rhombusPerimeter;whiteSpace=wrap;html=1;align=center;" vertex="1" parent="1">
          <mxGeometry x="1190" y="2215" width="120" height="60" as="geometry" />
        </mxCell>
        <mxCell id="4g3veOq3ECDi8k-GJWJ5-295" value="0,n" style="text;html=1;align=center;verticalAlign=middle;resizable=0;points=[];autosize=1;strokeColor=none;fillColor=none;" vertex="1" parent="1">
          <mxGeometry x="1306" y="2436" width="40" height="30" as="geometry" />
        </mxCell>
        <mxCell id="4g3veOq3ECDi8k-GJWJ5-296" value="1,n" style="text;html=1;align=center;verticalAlign=middle;resizable=0;points=[];autosize=1;strokeColor=none;fillColor=none;" vertex="1" parent="1">
          <mxGeometry x="1141" y="2216" width="40" height="30" as="geometry" />
        </mxCell>
        <mxCell id="4g3veOq3ECDi8k-GJWJ5-297" value="Utiliza" style="shape=rhombus;perimeter=rhombusPerimeter;whiteSpace=wrap;html=1;align=center;" vertex="1" parent="1">
          <mxGeometry x="825" y="2205" width="120" height="60" as="geometry" />
        </mxCell>
        <mxCell id="4g3veOq3ECDi8k-GJWJ5-298" value="" style="endArrow=none;html=1;rounded=0;exitX=0;exitY=0.5;exitDx=0;exitDy=0;entryX=1;entryY=0;entryDx=0;entryDy=0;" edge="1" parent="1" source="4g3veOq3ECDi8k-GJWJ5-297" target="4g3veOq3ECDi8k-GJWJ5-260">
          <mxGeometry relative="1" as="geometry">
            <mxPoint x="915" y="2225" as="sourcePoint" />
            <mxPoint x="775" y="2235" as="targetPoint" />
            <Array as="points">
              <mxPoint x="805" y="2235" />
            </Array>
          </mxGeometry>
        </mxCell>
        <mxCell id="4g3veOq3ECDi8k-GJWJ5-299" value="" style="endArrow=none;html=1;rounded=0;entryX=1;entryY=0.5;entryDx=0;entryDy=0;exitX=0;exitY=0;exitDx=0;exitDy=0;" edge="1" parent="1" source="4g3veOq3ECDi8k-GJWJ5-251" target="4g3veOq3ECDi8k-GJWJ5-297">
          <mxGeometry relative="1" as="geometry">
            <mxPoint x="915" y="2235" as="sourcePoint" />
            <mxPoint x="808.5799999999999" y="2265" as="targetPoint" />
          </mxGeometry>
        </mxCell>
        <mxCell id="4g3veOq3ECDi8k-GJWJ5-300" value="1,n" style="text;html=1;align=center;verticalAlign=middle;resizable=0;points=[];autosize=1;strokeColor=none;fillColor=none;" vertex="1" parent="1">
          <mxGeometry x="956" y="2213" width="40" height="30" as="geometry" />
        </mxCell>
        <mxCell id="4g3veOq3ECDi8k-GJWJ5-301" value="1,n" style="text;html=1;align=center;verticalAlign=middle;resizable=0;points=[];autosize=1;strokeColor=none;fillColor=none;" vertex="1" parent="1">
          <mxGeometry x="772" y="2213" width="40" height="30" as="geometry" />
        </mxCell>
        <mxCell id="4g3veOq3ECDi8k-GJWJ5-302" value="Premiación" style="swimlane;childLayout=stackLayout;horizontal=1;startSize=50;horizontalStack=0;rounded=1;fontSize=14;fontStyle=0;strokeWidth=2;resizeParent=0;resizeLast=1;shadow=0;dashed=0;align=center;arcSize=4;whiteSpace=wrap;html=1;" vertex="1" parent="1">
          <mxGeometry x="1450" y="2834.5" width="160" height="120" as="geometry" />
        </mxCell>
        <mxCell id="4g3veOq3ECDi8k-GJWJ5-303" value="&lt;div&gt;#CodigoPremiación&lt;/div&gt;&lt;div&gt;+NombrePremiación&lt;/div&gt;&lt;div&gt;+AñoRealiazación&lt;/div&gt;" style="align=left;strokeColor=none;fillColor=none;spacingLeft=4;fontSize=12;verticalAlign=top;resizable=0;rotatable=0;part=1;html=1;" vertex="1" parent="4g3veOq3ECDi8k-GJWJ5-302">
          <mxGeometry y="50" width="160" height="70" as="geometry" />
        </mxCell>
        <mxCell id="4g3veOq3ECDi8k-GJWJ5-304" style="edgeStyle=orthogonalEdgeStyle;rounded=0;orthogonalLoop=1;jettySize=auto;html=1;endArrow=none;endFill=0;entryX=1;entryY=0.5;entryDx=0;entryDy=0;" edge="1" parent="1" source="4g3veOq3ECDi8k-GJWJ5-305" target="4g3veOq3ECDi8k-GJWJ5-344">
          <mxGeometry relative="1" as="geometry">
            <mxPoint x="1330" y="2960" as="targetPoint" />
          </mxGeometry>
        </mxCell>
        <mxCell id="4g3veOq3ECDi8k-GJWJ5-305" value="Locación" style="swimlane;childLayout=stackLayout;horizontal=1;startSize=50;horizontalStack=0;rounded=1;fontSize=14;fontStyle=0;strokeWidth=2;resizeParent=0;resizeLast=1;shadow=0;dashed=0;align=center;arcSize=4;whiteSpace=wrap;html=1;" vertex="1" parent="1">
          <mxGeometry x="1250" y="2780" width="160" height="120" as="geometry" />
        </mxCell>
        <mxCell id="4g3veOq3ECDi8k-GJWJ5-306" value="&lt;div&gt;#CodigoLocación &lt;br&gt;&lt;/div&gt;&lt;div&gt;+NombreLocación&lt;/div&gt;" style="align=left;strokeColor=none;fillColor=none;spacingLeft=4;fontSize=12;verticalAlign=top;resizable=0;rotatable=0;part=1;html=1;" vertex="1" parent="4g3veOq3ECDi8k-GJWJ5-305">
          <mxGeometry y="50" width="160" height="70" as="geometry" />
        </mxCell>
        <mxCell id="4g3veOq3ECDi8k-GJWJ5-307" style="edgeStyle=orthogonalEdgeStyle;rounded=0;orthogonalLoop=1;jettySize=auto;html=1;endArrow=none;endFill=0;exitX=0.343;exitY=1.011;exitDx=0;exitDy=0;exitPerimeter=0;" edge="1" parent="1" source="4g3veOq3ECDi8k-GJWJ5-243">
          <mxGeometry relative="1" as="geometry">
            <mxPoint x="1329" y="2660" as="targetPoint" />
            <mxPoint x="1329" y="2610" as="sourcePoint" />
          </mxGeometry>
        </mxCell>
        <mxCell id="4g3veOq3ECDi8k-GJWJ5-308" value="1,n" style="text;html=1;align=center;verticalAlign=middle;resizable=0;points=[];autosize=1;strokeColor=none;fillColor=none;" vertex="1" parent="1">
          <mxGeometry x="1510" y="2260" width="40" height="30" as="geometry" />
        </mxCell>
        <mxCell id="4g3veOq3ECDi8k-GJWJ5-309" style="edgeStyle=orthogonalEdgeStyle;rounded=0;orthogonalLoop=1;jettySize=auto;html=1;endArrow=none;endFill=0;" edge="1" parent="1" source="4g3veOq3ECDi8k-GJWJ5-311" target="4g3veOq3ECDi8k-GJWJ5-332">
          <mxGeometry relative="1" as="geometry" />
        </mxCell>
        <mxCell id="4g3veOq3ECDi8k-GJWJ5-310" style="edgeStyle=orthogonalEdgeStyle;rounded=0;orthogonalLoop=1;jettySize=auto;html=1;entryX=1;entryY=0.5;entryDx=0;entryDy=0;endArrow=none;endFill=0;" edge="1" parent="1" source="4g3veOq3ECDi8k-GJWJ5-311" target="4g3veOq3ECDi8k-GJWJ5-333">
          <mxGeometry relative="1" as="geometry" />
        </mxCell>
        <mxCell id="4g3veOq3ECDi8k-GJWJ5-311" value="Posee" style="shape=rhombus;perimeter=rhombusPerimeter;whiteSpace=wrap;html=1;align=center;" vertex="1" parent="1">
          <mxGeometry x="1054" y="2468" width="120" height="60" as="geometry" />
        </mxCell>
        <mxCell id="4g3veOq3ECDi8k-GJWJ5-312" style="edgeStyle=orthogonalEdgeStyle;rounded=0;orthogonalLoop=1;jettySize=auto;html=1;entryX=0.5;entryY=0;entryDx=0;entryDy=0;endArrow=none;endFill=0;" edge="1" parent="1" source="4g3veOq3ECDi8k-GJWJ5-314" target="4g3veOq3ECDi8k-GJWJ5-263">
          <mxGeometry relative="1" as="geometry" />
        </mxCell>
        <mxCell id="4g3veOq3ECDi8k-GJWJ5-313" style="edgeStyle=orthogonalEdgeStyle;rounded=0;orthogonalLoop=1;jettySize=auto;html=1;endArrow=none;endFill=0;" edge="1" parent="1" source="4g3veOq3ECDi8k-GJWJ5-314" target="4g3veOq3ECDi8k-GJWJ5-331">
          <mxGeometry relative="1" as="geometry" />
        </mxCell>
        <mxCell id="4g3veOq3ECDi8k-GJWJ5-314" value="Asocian" style="shape=rhombus;perimeter=rhombusPerimeter;whiteSpace=wrap;html=1;align=center;" vertex="1" parent="1">
          <mxGeometry x="996" y="2701" width="120" height="60" as="geometry" />
        </mxCell>
        <mxCell id="4g3veOq3ECDi8k-GJWJ5-315" style="edgeStyle=orthogonalEdgeStyle;rounded=0;orthogonalLoop=1;jettySize=auto;html=1;entryX=0.5;entryY=0;entryDx=0;entryDy=0;endArrow=none;endFill=0;" edge="1" parent="1" source="4g3veOq3ECDi8k-GJWJ5-243" target="4g3veOq3ECDi8k-GJWJ5-314">
          <mxGeometry relative="1" as="geometry" />
        </mxCell>
        <mxCell id="4g3veOq3ECDi8k-GJWJ5-316" value="" style="edgeStyle=orthogonalEdgeStyle;rounded=0;orthogonalLoop=1;jettySize=auto;html=1;endArrow=none;endFill=0;" edge="1" parent="1" source="4g3veOq3ECDi8k-GJWJ5-318" target="4g3veOq3ECDi8k-GJWJ5-262">
          <mxGeometry relative="1" as="geometry" />
        </mxCell>
        <mxCell id="4g3veOq3ECDi8k-GJWJ5-317" style="edgeStyle=orthogonalEdgeStyle;rounded=0;orthogonalLoop=1;jettySize=auto;html=1;exitX=0.5;exitY=0;exitDx=0;exitDy=0;entryX=0.5;entryY=1;entryDx=0;entryDy=0;endArrow=none;endFill=0;" edge="1" parent="1" source="4g3veOq3ECDi8k-GJWJ5-318" target="4g3veOq3ECDi8k-GJWJ5-319">
          <mxGeometry relative="1" as="geometry" />
        </mxCell>
        <mxCell id="4g3veOq3ECDi8k-GJWJ5-318" value="CuentaCon" style="shape=rhombus;perimeter=rhombusPerimeter;whiteSpace=wrap;html=1;align=center;" vertex="1" parent="1">
          <mxGeometry x="1522" y="2443" width="120" height="60" as="geometry" />
        </mxCell>
        <mxCell id="4g3veOq3ECDi8k-GJWJ5-319" value="MontoObtenido" style="ellipse;whiteSpace=wrap;html=1;align=center;" vertex="1" parent="1">
          <mxGeometry x="1532" y="2380" width="100" height="40" as="geometry" />
        </mxCell>
        <mxCell id="4g3veOq3ECDi8k-GJWJ5-320" style="edgeStyle=orthogonalEdgeStyle;rounded=0;orthogonalLoop=1;jettySize=auto;html=1;entryX=0.5;entryY=0;entryDx=0;entryDy=0;endArrow=none;endFill=0;" edge="1" parent="1" source="4g3veOq3ECDi8k-GJWJ5-256" target="4g3veOq3ECDi8k-GJWJ5-290">
          <mxGeometry relative="1" as="geometry" />
        </mxCell>
        <mxCell id="4g3veOq3ECDi8k-GJWJ5-321" style="edgeStyle=orthogonalEdgeStyle;rounded=0;orthogonalLoop=1;jettySize=auto;html=1;entryX=0.5;entryY=0;entryDx=0;entryDy=0;endArrow=none;endFill=0;" edge="1" parent="1" source="4g3veOq3ECDi8k-GJWJ5-322" target="4g3veOq3ECDi8k-GJWJ5-255">
          <mxGeometry relative="1" as="geometry" />
        </mxCell>
        <mxCell id="4g3veOq3ECDi8k-GJWJ5-322" value="" style="triangle;whiteSpace=wrap;html=1;rotation=90;" vertex="1" parent="1">
          <mxGeometry x="1831" y="2735" width="40" height="50" as="geometry" />
        </mxCell>
        <mxCell id="4g3veOq3ECDi8k-GJWJ5-323" style="edgeStyle=orthogonalEdgeStyle;rounded=0;orthogonalLoop=1;jettySize=auto;html=1;exitX=0.75;exitY=1;exitDx=0;exitDy=0;entryX=0;entryY=0.5;entryDx=0;entryDy=0;endArrow=none;endFill=0;" edge="1" parent="1" source="4g3veOq3ECDi8k-GJWJ5-253" target="4g3veOq3ECDi8k-GJWJ5-322">
          <mxGeometry relative="1" as="geometry" />
        </mxCell>
        <mxCell id="4g3veOq3ECDi8k-GJWJ5-324" style="edgeStyle=orthogonalEdgeStyle;rounded=0;orthogonalLoop=1;jettySize=auto;html=1;exitX=0.5;exitY=1;exitDx=0;exitDy=0;entryX=0.5;entryY=0;entryDx=0;entryDy=0;endArrow=none;endFill=0;" edge="1" parent="1" source="4g3veOq3ECDi8k-GJWJ5-326">
          <mxGeometry relative="1" as="geometry">
            <mxPoint x="1530" y="2835.5" as="targetPoint" />
          </mxGeometry>
        </mxCell>
        <mxCell id="4g3veOq3ECDi8k-GJWJ5-325" style="edgeStyle=orthogonalEdgeStyle;rounded=0;orthogonalLoop=1;jettySize=auto;html=1;entryX=0;entryY=0.5;entryDx=0;entryDy=0;endArrow=none;endFill=0;" edge="1" parent="1" source="4g3veOq3ECDi8k-GJWJ5-326" target="4g3veOq3ECDi8k-GJWJ5-327">
          <mxGeometry relative="1" as="geometry" />
        </mxCell>
        <mxCell id="4g3veOq3ECDi8k-GJWJ5-326" value="ParticipanEn" style="shape=rhombus;perimeter=rhombusPerimeter;whiteSpace=wrap;html=1;align=center;" vertex="1" parent="1">
          <mxGeometry x="1470" y="2731.5" width="120" height="60" as="geometry" />
        </mxCell>
        <mxCell id="4g3veOq3ECDi8k-GJWJ5-327" value="&lt;div&gt;+PremioGanado&lt;/div&gt;+Categoría" style="ellipse;whiteSpace=wrap;html=1;align=center;" vertex="1" parent="1">
          <mxGeometry x="1621" y="2741.5" width="100" height="40" as="geometry" />
        </mxCell>
        <mxCell id="4g3veOq3ECDi8k-GJWJ5-328" style="edgeStyle=orthogonalEdgeStyle;rounded=0;orthogonalLoop=1;jettySize=auto;html=1;entryX=1;entryY=0.25;entryDx=0;entryDy=0;endArrow=none;endFill=0;" edge="1" parent="1" source="4g3veOq3ECDi8k-GJWJ5-329" target="4g3veOq3ECDi8k-GJWJ5-247">
          <mxGeometry relative="1" as="geometry">
            <Array as="points">
              <mxPoint x="1410" y="3030" />
              <mxPoint x="1410" y="3157" />
            </Array>
          </mxGeometry>
        </mxCell>
        <mxCell id="4g3veOq3ECDi8k-GJWJ5-329" value="SeLlevaAcabo" style="shape=rhombus;perimeter=rhombusPerimeter;whiteSpace=wrap;html=1;align=center;" vertex="1" parent="1">
          <mxGeometry x="1470" y="3000" width="120" height="60" as="geometry" />
        </mxCell>
        <mxCell id="4g3veOq3ECDi8k-GJWJ5-330" style="edgeStyle=orthogonalEdgeStyle;rounded=0;orthogonalLoop=1;jettySize=auto;html=1;exitX=0.5;exitY=1;exitDx=0;exitDy=0;entryX=0.5;entryY=0;entryDx=0;entryDy=0;endArrow=none;endFill=0;" edge="1" parent="1" source="4g3veOq3ECDi8k-GJWJ5-303" target="4g3veOq3ECDi8k-GJWJ5-329">
          <mxGeometry relative="1" as="geometry" />
        </mxCell>
        <mxCell id="4g3veOq3ECDi8k-GJWJ5-331" value="&lt;div&gt;+FechaInicio&lt;/div&gt;&lt;div&gt;+FechaFin&lt;/div&gt;&lt;div&gt;+Valor&lt;/div&gt;&lt;div&gt;+Clausula&lt;br&gt;&lt;/div&gt;" style="ellipse;whiteSpace=wrap;html=1;align=center;" vertex="1" parent="1">
          <mxGeometry x="833" y="2696" width="120" height="70" as="geometry" />
        </mxCell>
        <mxCell id="4g3veOq3ECDi8k-GJWJ5-332" value="&lt;div&gt;+Cantidad de Meses&lt;/div&gt;+Costo" style="ellipse;whiteSpace=wrap;html=1;" vertex="1" parent="1">
          <mxGeometry x="1048" y="2384" width="132" height="50" as="geometry" />
        </mxCell>
        <mxCell id="4g3veOq3ECDi8k-GJWJ5-333" value="PlataformaProducción" style="swimlane;childLayout=stackLayout;horizontal=1;startSize=50;horizontalStack=0;rounded=1;fontSize=14;fontStyle=0;strokeWidth=2;resizeParent=0;resizeLast=1;shadow=0;dashed=0;align=center;arcSize=4;whiteSpace=wrap;html=1;" vertex="1" parent="1">
          <mxGeometry x="844" y="2438" width="160" height="120" as="geometry" />
        </mxCell>
        <mxCell id="4g3veOq3ECDi8k-GJWJ5-334" value="&lt;div&gt;#CodigoPlataformaP&lt;/div&gt;&lt;div&gt;+DescripciónP&lt;br&gt;&lt;/div&gt;" style="align=left;strokeColor=none;fillColor=none;spacingLeft=4;fontSize=12;verticalAlign=top;resizable=0;rotatable=0;part=1;html=1;" vertex="1" parent="4g3veOq3ECDi8k-GJWJ5-333">
          <mxGeometry y="50" width="160" height="70" as="geometry" />
        </mxCell>
        <mxCell id="4g3veOq3ECDi8k-GJWJ5-335" style="edgeStyle=orthogonalEdgeStyle;rounded=0;orthogonalLoop=1;jettySize=auto;html=1;entryX=0.5;entryY=0;entryDx=0;entryDy=0;endArrow=none;endFill=0;" edge="1" parent="1" source="4g3veOq3ECDi8k-GJWJ5-336" target="4g3veOq3ECDi8k-GJWJ5-342">
          <mxGeometry relative="1" as="geometry" />
        </mxCell>
        <mxCell id="4g3veOq3ECDi8k-GJWJ5-336" value="Trabaja En" style="shape=rhombus;perimeter=rhombusPerimeter;whiteSpace=wrap;html=1;align=center;" vertex="1" parent="1">
          <mxGeometry x="1514" y="2574" width="120" height="60" as="geometry" />
        </mxCell>
        <mxCell id="4g3veOq3ECDi8k-GJWJ5-337" value="" style="endArrow=none;html=1;rounded=0;exitX=1;exitY=0.5;exitDx=0;exitDy=0;entryX=0;entryY=0.25;entryDx=0;entryDy=0;" edge="1" parent="1" source="4g3veOq3ECDi8k-GJWJ5-336">
          <mxGeometry relative="1" as="geometry">
            <mxPoint x="1541" y="2749" as="sourcePoint" />
            <mxPoint x="1731" y="2604" as="targetPoint" />
            <Array as="points">
              <mxPoint x="1674" y="2604" />
              <mxPoint x="1724" y="2604" />
            </Array>
          </mxGeometry>
        </mxCell>
        <mxCell id="4g3veOq3ECDi8k-GJWJ5-338" value="" style="endArrow=none;html=1;rounded=0;exitX=0.138;exitY=0.983;exitDx=0;exitDy=0;entryX=0;entryY=0.5;entryDx=0;entryDy=0;exitPerimeter=0;" edge="1" parent="1" source="4g3veOq3ECDi8k-GJWJ5-340" target="4g3veOq3ECDi8k-GJWJ5-336">
          <mxGeometry relative="1" as="geometry">
            <mxPoint x="1428" y="2604" as="sourcePoint" />
            <mxPoint x="1508" y="2624" as="targetPoint" />
            <Array as="points">
              <mxPoint x="1518" y="2604" />
            </Array>
          </mxGeometry>
        </mxCell>
        <mxCell id="4g3veOq3ECDi8k-GJWJ5-339" value="1,n" style="text;html=1;align=center;verticalAlign=middle;resizable=0;points=[];autosize=1;strokeColor=none;fillColor=none;" vertex="1" parent="1">
          <mxGeometry x="1691" y="2574" width="40" height="30" as="geometry" />
        </mxCell>
        <mxCell id="4g3veOq3ECDi8k-GJWJ5-340" value="0,n" style="text;html=1;align=center;verticalAlign=middle;resizable=0;points=[];autosize=1;strokeColor=none;fillColor=none;" vertex="1" parent="1">
          <mxGeometry x="1428" y="2574" width="40" height="30" as="geometry" />
        </mxCell>
        <mxCell id="4g3veOq3ECDi8k-GJWJ5-341" style="edgeStyle=orthogonalEdgeStyle;rounded=0;orthogonalLoop=1;jettySize=auto;html=1;exitX=0.75;exitY=1;exitDx=0;exitDy=0;entryX=0;entryY=0.5;entryDx=0;entryDy=0;endArrow=none;endFill=0;" edge="1" parent="1" source="4g3veOq3ECDi8k-GJWJ5-243" target="4g3veOq3ECDi8k-GJWJ5-326">
          <mxGeometry relative="1" as="geometry" />
        </mxCell>
        <mxCell id="4g3veOq3ECDi8k-GJWJ5-342" value="+FechaInicio&lt;div&gt;+FechaFin&lt;/div&gt;&lt;div&gt;+Monto&lt;/div&gt;" style="ellipse;whiteSpace=wrap;html=1;align=center;" vertex="1" parent="1">
          <mxGeometry x="1524" y="2655" width="100" height="60" as="geometry" />
        </mxCell>
        <mxCell id="4g3veOq3ECDi8k-GJWJ5-343" style="edgeStyle=orthogonalEdgeStyle;rounded=0;orthogonalLoop=1;jettySize=auto;html=1;entryX=0.233;entryY=0.957;entryDx=0;entryDy=0;entryPerimeter=0;endArrow=none;endFill=0;" edge="1" parent="1" source="4g3veOq3ECDi8k-GJWJ5-294" target="4g3veOq3ECDi8k-GJWJ5-296">
          <mxGeometry relative="1" as="geometry" />
        </mxCell>
        <mxCell id="4g3veOq3ECDi8k-GJWJ5-344" value="EstaEn" style="shape=rhombus;perimeter=rhombusPerimeter;whiteSpace=wrap;html=1;align=center;" vertex="1" parent="1">
          <mxGeometry x="1154" y="2970" width="120" height="60" as="geometry" />
        </mxCell>
        <mxCell id="4g3veOq3ECDi8k-GJWJ5-345" style="edgeStyle=orthogonalEdgeStyle;rounded=0;orthogonalLoop=1;jettySize=auto;html=1;endArrow=none;endFill=0;entryX=0;entryY=0.25;entryDx=0;entryDy=0;" edge="1" parent="1" target="4g3veOq3ECDi8k-GJWJ5-246">
          <mxGeometry relative="1" as="geometry">
            <mxPoint x="1098" y="3100" as="targetPoint" />
            <mxPoint x="1154" y="3000" as="sourcePoint" />
            <Array as="points">
              <mxPoint x="1110" y="3000" />
              <mxPoint x="1110" y="3120" />
            </Array>
          </mxGeometry>
        </mxCell>
        <mxCell id="4g3veOq3ECDi8k-GJWJ5-346" value="1,n" style="text;html=1;align=center;verticalAlign=middle;resizable=0;points=[];autosize=1;strokeColor=none;fillColor=none;" vertex="1" parent="1">
          <mxGeometry x="996" y="2473" width="40" height="30" as="geometry" />
        </mxCell>
        <mxCell id="4g3veOq3ECDi8k-GJWJ5-347" value="0,n" style="text;html=1;align=center;verticalAlign=middle;resizable=0;points=[];autosize=1;strokeColor=none;fillColor=none;" vertex="1" parent="1">
          <mxGeometry x="1234" y="2473" width="40" height="30" as="geometry" />
        </mxCell>
        <mxCell id="4g3veOq3ECDi8k-GJWJ5-348" value="0,n" style="text;html=1;align=center;verticalAlign=middle;resizable=0;points=[];autosize=1;strokeColor=none;fillColor=none;" vertex="1" parent="1">
          <mxGeometry x="1428" y="2443" width="40" height="30" as="geometry" />
        </mxCell>
        <mxCell id="4g3veOq3ECDi8k-GJWJ5-349" value="1,n" style="text;html=1;align=center;verticalAlign=middle;resizable=0;points=[];autosize=1;strokeColor=none;fillColor=none;" vertex="1" parent="1">
          <mxGeometry x="1691" y="2443" width="40" height="30" as="geometry" />
        </mxCell>
        <mxCell id="4g3veOq3ECDi8k-GJWJ5-350" value="0,n" style="text;html=1;align=center;verticalAlign=middle;resizable=0;points=[];autosize=1;strokeColor=none;fillColor=none;" vertex="1" parent="1">
          <mxGeometry x="1390" y="2604" width="40" height="30" as="geometry" />
        </mxCell>
        <mxCell id="4g3veOq3ECDi8k-GJWJ5-351" value="0,n" style="text;html=1;align=center;verticalAlign=middle;resizable=0;points=[];autosize=1;strokeColor=none;fillColor=none;" vertex="1" parent="1">
          <mxGeometry x="1524" y="2804.5" width="40" height="30" as="geometry" />
        </mxCell>
        <mxCell id="4g3veOq3ECDi8k-GJWJ5-352" value="0,n" style="text;html=1;align=center;verticalAlign=middle;resizable=0;points=[];autosize=1;strokeColor=none;fillColor=none;" vertex="1" parent="1">
          <mxGeometry x="1524" y="2950" width="40" height="30" as="geometry" />
        </mxCell>
        <mxCell id="4g3veOq3ECDi8k-GJWJ5-353" value="1,1" style="text;html=1;align=center;verticalAlign=middle;resizable=0;points=[];autosize=1;strokeColor=none;fillColor=none;" vertex="1" parent="1">
          <mxGeometry x="1290" y="3158" width="40" height="30" as="geometry" />
        </mxCell>
        <mxCell id="4g3veOq3ECDi8k-GJWJ5-354" value="0,n" style="text;html=1;align=center;verticalAlign=middle;resizable=0;points=[];autosize=1;strokeColor=none;fillColor=none;" vertex="1" parent="1">
          <mxGeometry x="1296" y="2900" width="40" height="30" as="geometry" />
        </mxCell>
        <mxCell id="4g3veOq3ECDi8k-GJWJ5-355" value="1,1" style="text;html=1;align=center;verticalAlign=middle;resizable=0;points=[];autosize=1;strokeColor=none;fillColor=none;" vertex="1" parent="1">
          <mxGeometry x="1090" y="3113" width="40" height="30" as="geometry" />
        </mxCell>
        <mxCell id="4g3veOq3ECDi8k-GJWJ5-356" value="0,n" style="text;html=1;align=center;verticalAlign=middle;resizable=0;points=[];autosize=1;strokeColor=none;fillColor=none;" vertex="1" parent="1">
          <mxGeometry x="1234" y="2558" width="40" height="30" as="geometry" />
        </mxCell>
        <mxCell id="4g3veOq3ECDi8k-GJWJ5-357" value="0,n" style="text;html=1;align=center;verticalAlign=middle;resizable=0;points=[];autosize=1;strokeColor=none;fillColor=none;" vertex="1" parent="1">
          <mxGeometry x="1048" y="2780" width="40" height="30" as="geometry" />
        </mxCell>
      </root>
    </mxGraphModel>
  </diagram>
</mxfile>
